<svg width="29" height="26" viewBox="0 0 29 26" fill="none" xmlns="http://www.w3.org/2000/svg">
<path d="M0.527916 2.92718L27.4192 4.84686e-05C27.8029 -0.042528 28.1197 0.287439 28.0704 0.674175L25.7297 18.5243C25.691 18.8224 25.4411 19.0424 25.1419 19.0424H18.1164C17.9897 19.0424 17.8665 19.0849 17.7644 19.1594L8.78186 25.8794C8.34892 26.2023 7.74704 25.8226 7.84559 25.2869L8.46156 22.0192C8.53195 21.6466 8.24333 21.3025 7.86671 21.3095L4.23779 21.3912C3.95269 21.3982 3.70278 21.1996 3.64294 20.9193L0.0140243 3.64743C-0.0598916 3.29972 0.182975 2.96621 0.531436 2.93073L0.527916 2.92718Z" fill="#3862F4"/>
</svg>
