<svg width="150" height="26" viewBox="0 0 150 26" fill="none" xmlns="http://www.w3.org/2000/svg">
<g clip-path="url(#clip0_24_294)">
<path d="M39.3549 7.26276V8.74584C40.0905 7.44371 41.0796 6.85474 42.5755 6.85474C44.0714 6.85474 45.2119 7.54306 45.768 8.82035C46.5529 7.465 47.644 6.85474 49.3159 6.85474C50.5056 6.85474 51.4947 7.23792 52.1529 7.95463C52.8639 8.74584 53.0892 9.56544 53.0892 11.3536V19.0955H49.8721V11.9675C49.8721 10.3566 49.2878 9.59027 48.0735 9.59027C46.8591 9.59027 46.1974 10.4595 46.1974 11.9675V19.0955H42.9768V12.0703C42.9768 10.4347 42.3678 9.59382 41.2028 9.59382C40.0377 9.59382 39.3514 10.4383 39.3514 12.0703V19.0955H36.1343V7.26276H39.3514H39.3549Z" fill="black"/>
<path d="M58.7913 13.958C59.0693 15.5937 60.2626 16.6155 61.857 16.6155C63.0467 16.6155 64.0604 16.0265 64.5673 15.0828L67.531 15.8988C66.3659 18.1979 64.3139 19.5001 61.8289 19.5001C58.1049 19.5001 55.4404 16.8426 55.4404 13.1633C55.4404 9.48396 57.9993 6.85132 61.6247 6.85132C65.2501 6.85132 67.985 9.5088 67.985 13.3158L67.9604 13.9545H58.7842L58.7913 13.958ZM64.6729 12.0918C64.3948 10.5342 63.279 9.58685 61.681 9.58685C60.0831 9.58685 59.0975 10.481 58.7913 12.0918H64.6729Z" fill="black"/>
<path d="M73.5146 7.26289V8.71758C74.3769 7.36224 75.2393 6.85132 76.707 6.85132C77.8228 6.85132 78.8858 7.25934 79.5968 7.95121C80.3571 8.71758 80.6351 9.66136 80.6351 11.6057V19.092H77.4145V11.7583C77.4145 11.0948 77.3371 10.7116 77.1364 10.3781C76.8337 9.89198 76.2248 9.58685 75.5912 9.58685C74.3488 9.58685 73.511 10.5306 73.511 11.9108V19.0885H70.2939V7.26289H73.511H73.5146Z" fill="black"/>
<path d="M87.1257 15.6184C87.1257 16.179 87.3299 16.3351 88.0374 16.3847H88.5935V19.0919H86.0346C84.4648 19.0422 83.8805 18.4036 83.9051 16.8424V9.94506H82.5605V7.21307H83.9051V4.04468H87.1257V7.21307H88.597V9.94506H87.1257V15.6184Z" fill="black"/>
<path d="M102.838 13.291C102.838 16.7645 100.026 19.5001 96.425 19.5001C92.8242 19.5001 90.0647 16.8674 90.0647 13.1881C90.0647 9.5088 92.6764 6.85132 96.4778 6.85132C100.279 6.85132 102.838 9.55847 102.838 13.291ZM93.3064 13.1917C93.3064 15.2353 94.5736 16.6155 96.4496 16.6155C98.3257 16.6155 99.5928 15.2105 99.5928 13.2449C99.5928 11.0983 98.4031 9.77135 96.4743 9.77135C94.5454 9.77135 93.3064 11.1267 93.3064 13.1952V13.1917Z" fill="black"/>
<path d="M108.438 7.26287V9.00141C108.769 8.13214 108.994 7.77379 109.476 7.41899C109.983 7.06064 110.666 6.8584 111.377 6.8584C111.455 6.8584 111.581 6.8584 111.757 6.88323V10.2042C111.504 10.1794 111.25 10.1545 111.074 10.1545C110.187 10.1545 109.378 10.5625 108.92 11.226C108.54 11.7618 108.438 12.2727 108.438 13.3974V19.0956H105.221V7.26287H108.438Z" fill="black"/>
<path d="M113.507 19.092V2.05078H116.724V19.092H113.507Z" fill="black"/>
<path d="M123.313 3.91698C123.313 4.91398 122.553 5.68036 121.539 5.68036C120.525 5.68036 119.74 4.91398 119.74 3.89215C119.74 2.87031 120.501 2.0791 121.539 2.0791C122.577 2.0791 123.313 2.84548 123.313 3.91698ZM123.137 19.0919H119.916V7.26278H123.137V19.0919Z" fill="black"/>
<path d="M129.546 7.26289V8.71758C130.409 7.36224 131.271 6.85132 132.739 6.85132C133.855 6.85132 134.918 7.25934 135.629 7.95121C136.389 8.71758 136.667 9.66136 136.667 11.6057V19.092H133.45V11.7583C133.45 11.0948 133.372 10.7116 133.172 10.3781C132.869 9.89198 132.26 9.58685 131.627 9.58685C130.384 9.58685 129.55 10.5306 129.55 11.9108V19.0885H126.329V7.26289H129.55H129.546Z" fill="black"/>
<path d="M143.006 19.092H139.785V2.05078H143.006V11.8114L146.276 7.26284H150L146.022 12.9362L150 19.092H146.276L143.006 14.1851V19.092Z" fill="black"/>
<path d="M0.527916 2.92718L27.4192 4.84686e-05C27.8029 -0.042528 28.1197 0.287439 28.0704 0.674175L25.7297 18.5243C25.691 18.8224 25.4411 19.0424 25.1419 19.0424H18.1164C17.9897 19.0424 17.8665 19.0849 17.7644 19.1594L8.78186 25.8794C8.34892 26.2023 7.74704 25.8226 7.84559 25.2869L8.46156 22.0192C8.53195 21.6466 8.24333 21.3025 7.86671 21.3095L4.23779 21.3912C3.95269 21.3982 3.70278 21.1996 3.64294 20.9193L0.0140243 3.64743C-0.0598916 3.29972 0.182975 2.96621 0.531436 2.93073L0.527916 2.92718Z" fill="#3862F4"/>
</g>
<defs>
<clipPath id="clip0_24_294">
<rect width="150" height="26" fill="white"/>
</clipPath>
</defs>
</svg>
